<svg width="77" height="77" viewBox="0 0 77 77" fill="none" xmlns="http://www.w3.org/2000/svg">
<g clip-path="url(#clip0_80_2)">
<path d="M71.9879 27.7274L48.5791 4.31864C45.7929 1.53332 42.0926 0 38.1533 0C34.2148 0 30.5118 1.53332 27.7274 4.31864L4.31954 27.7274C1.53332 30.5118 0 34.2148 0 38.1533C0 42.0926 1.53332 45.7929 4.31954 48.5791L27.7274 71.9879C30.5109 74.7723 34.2148 76.3065 38.1533 76.3065C42.0926 76.3065 45.7947 74.7723 48.5791 71.9879L71.9879 48.5791C74.7723 45.7947 76.3065 42.0926 76.3065 38.1533C76.3056 34.2148 74.7714 30.5109 71.9879 27.7274ZM69.8461 46.4373L46.4373 69.8461C44.2236 72.058 41.281 73.2776 38.1533 73.2776C35.0237 73.2776 32.082 72.058 29.8692 69.8461L11.8504 51.8264H27.3472L32.5062 60.7648H43.8003L49.4455 50.9852L43.8003 41.2055H32.5062L27.3472 50.1421H10.167L6.46134 46.4364C4.24854 44.2236 3.02889 41.2828 3.02889 38.1533C3.02889 35.0237 4.24764 32.082 6.46044 29.8692L29.8683 6.46134C32.0811 4.24854 35.0219 3.03069 38.1524 3.03069C41.2828 3.03069 44.2227 4.24854 46.4364 6.46134L64.7922 24.8153H48.9593L43.8003 15.8779H32.5062L26.861 25.6575L32.5062 35.4362H43.8003L48.9593 26.4997H66.4747L69.8452 29.8701C72.0571 32.0829 73.2767 35.0237 73.2767 38.1542C73.2776 41.281 72.058 44.2236 69.8461 46.4373ZM30.359 50.9852L34.2561 44.2353H42.0504L45.9475 50.9852L42.0504 57.735H34.2561L30.359 50.9852ZM45.9475 25.6566L42.0504 32.4064H34.2561L30.359 25.6566L34.2561 18.9068H42.0504L45.9475 25.6566Z" fill="#354555"/>
<path d="M49.1507 30.6745L45.3929 37.1844H30.9144L27.1557 30.6745H18.5211L14.2034 38.1533L18.5211 45.6311H27.1557L30.9144 39.1221H45.3929L49.1507 45.6311H57.7862L62.1021 38.1533L57.7862 30.6745H49.1507Z" fill="#354555"/>
</g>
<defs>
<clipPath id="clip0_80_2">
<rect width="76.3065" height="76.3065" fill="white"/>
</clipPath>
</defs>
</svg>
